<?xml version="1.0" encoding="UTF-8" standalone="no"?>
<svg viewBox="0 0 341.32669 1047.1382" xmlns="http://www.w3.org/2000/svg" xmlns:xlink="http://www.w3.org/1999/xlink">
<defs>
<linearGradient id="linearGradient838">
<stop offset="0" stop-color="#fff" stop-opacity="0"/>
<stop offset="1" stop-color="#fff"/>
</linearGradient>
<linearGradient id="linearGradient843">
<stop offset="0" stop-opacity=".38824"/>
<stop offset=".5" stop-opacity=".19216"/>
<stop offset="1" stop-opacity="0"/>
</linearGradient>
<linearGradient gradientUnits="userSpaceOnUse" id="linearGradient5100" x2="0" y1="633.62772" y2="407.5836">
<stop offset="0" stop-opacity=".38824"/>
<stop offset=".5" stop-color="#fff" stop-opacity=".34375"/>
<stop offset="1" stop-color="#fff" stop-opacity=".19608"/>
</linearGradient>
<linearGradient gradientUnits="userSpaceOnUse" id="linearGradient5327" x1="18.32028" x2="145.75813" y1="428.50037" y2="137.4805">
<stop offset="0" stop-color="#fff"/>
<stop offset="1" stop-color="#fff" stop-opacity="0"/>
</linearGradient>
<linearGradient gradientTransform="scale(.73371,1.36293)" gradientUnits="userSpaceOnUse" id="linearGradient5102" x1="238.75548" x2="317.05142" xlink:href="#linearGradient843" y1="339.24017" y2="333.88309"/>
<linearGradient gradientTransform="scale(.73371,1.36293)" gradientUnits="userSpaceOnUse" id="linearGradient5104" x1="458.70102" x2="404.87259" xlink:href="#linearGradient843" y1="329.58002" y2="326.23184"/>
<linearGradient gradientUnits="userSpaceOnUse" id="linearGradient5106" x2="0" xlink:href="#linearGradient843" y1="404.9027" y2="426.31233"/>
<linearGradient gradientTransform="scale(1.38139,.72391)" gradientUnits="userSpaceOnUse" id="linearGradient5108" x1="199.15404" x2="193.92329" xlink:href="#linearGradient843" y1="696.90118" y2="593.573"/>
<linearGradient gradientUnits="userSpaceOnUse" id="linearGradient5110" x2="0" xlink:href="#linearGradient838" y1="431.93541" y2="370.04557"/>
<linearGradient gradientTransform="scale(1.54934,.64544)" gradientUnits="userSpaceOnUse" id="linearGradient5112" x1="118.25803" x2="156.10408" xlink:href="#linearGradient843" y1="563.01941" y2="564.03723"/>
<linearGradient gradientTransform="scale(1.549,.64558)" gradientUnits="userSpaceOnUse" id="linearGradient5118" x1="177.77042" x2="178.45302" xlink:href="#linearGradient843" y1="831.05975" y2="795.11487"/>
<linearGradient gradientUnits="userSpaceOnUse" id="linearGradient5120" x2="0" xlink:href="#linearGradient838" y1="551.1452" y2="598.52842"/>
<linearGradient gradientUnits="userSpaceOnUse" id="linearGradient5122" x2="0" xlink:href="#linearGradient838" y1="549.93322" y2="601.22234"/>
<radialGradient cx="184.20265" cy="780.47272" fx="182.57774" fy="734.32568" gradientTransform="scale(1.455,.68728)" gradientUnits="userSpaceOnUse" id="radialGradient5116" r="49.9721">
<stop offset="0" stop-color="#fff"/>
<stop offset=".52956" stop-color="#fff" stop-opacity=".16078"/>
<stop offset=".67709" stop-opacity=".05882"/>
<stop offset="1" stop-opacity="0"/>
</radialGradient>
<radialGradient cx="106.52795" cy="541.31592" fx="105.48236" fy="502.10669" gradientUnits="userSpaceOnUse" id="radialGradient5124" r="49.66506">
<stop offset="0" stop-color="#fff" stop-opacity=".61983"/>
<stop offset="1" stop-color="#fff" stop-opacity="0"/>
</radialGradient>
</defs>
<g transform="translate(-1.2218,-1.50503)">
<g transform="translate(2.85714,-2.85714)">
<path d="m159.23921,4.36218h16.88555a44.41196,44.41196 0 0,1 44.41196,44.41196v37.81026a44.41196,44.41196 0 0,1 -44.41196,44.41196h-16.88555a44.41196,44.41196 0 0,1 -44.41196-44.41196v-37.81026a44.41196,44.41196 0 0,1 44.41196-44.41196" fill="#008000"/>
<path d="m127.51002,79.35326c-6.35055,0-11.42434,5.59277-11.42434,12.55513 0,0-1.52073,32.78679 0,34.91894-1.30463.0367.12073.10607 0,.1509-95.12063,35.33121-114.38124,90.31367-114.51859,188.32688-.04898,34.94959-1.00965,58.79608 0,91.74899 .7534,24.14448 1.89203,37.27633 22.02281,53.11784 1.65064,1.29893.75557,57.42712 0,57.94673-14.22547,9.78302-17.98297,25.30621-22.02281,43.46006-6.65285,29.89596-1.04252,336.21365 0,381.48262 1.49243,64.80505 24.9621,109.76515 57.2593,108.16725 32.35793-1.6008 17.18006-79.19387 44.15573-79.19387 30.28906,0 33.28617,79.57567 61.55375,79.46547 38.70695-.1508 39.62486-77.14541 64.8847-77.53389 27.12416-.4172 23.39586,76.64419 63.86614,76.38709 27.5954-.1754 39.46764-35.0187 43.02706-107.29205 2.11792-43.00382 8.30515-334.17526-4.40456-381.72407-4.58634-17.15809-9.676-32.15531-22.02281-43.21861-3.33771-2.99073-1.36345-57.02378 0-57.94673 15.18386-16.35341 25.19644-29.05965 26.42737-53.11784 1.85995-36.35217 0-56.42883 0-91.74899 0-88.91283-17.2822-157.28398-114.5186-188.32688-.11478-.03664.22023-4.93988.22023-7.87713v-27.19271c0-6.96236-5.10132-12.55513-11.45186-12.55513h-83.05351z" fill="#f00"/>
<path d="m98.7294,79.1788h140.59721a4.44928,4.44928 0 0,1 4.44928,4.44928 4.44928,4.44928 0 0,1 -4.44928,4.44928h-140.59721a4.44928,4.44928 0 0,1 -4.44928-4.44928 4.44928,4.44928 0 0,1 4.44928-4.44928" fill="#f00"/>
<path d="m1.02169,576.99347h335.83746a1.9715,1.9715 0 0,1 1.9715,1.9715v339.32278a1.9715,1.9715 0 0,1 -1.9715,1.9715h-335.83746a1.9715,1.9715 0 0,1 -1.9715-1.9715v-339.32278a1.9715,1.9715 0 0,1 1.9715-1.9715" fill="#e6e6e6"/>
<path d="m54.18465,673.79061 3.99765-15.50709 10.3033,6.00022-3.37201,15.87143-10.92894-6.36456zm-24.07084-18.74484c9.66059-5.85813 18.34712-13.70665 26.05963-23.5456 4.28127-5.43343 10.85552-15.02011 19.72275-28.76008l34.94766,20.35208c-10.82816,18.59353-18.23416,35.064-22.21803,49.41149-2.09985,7.61899-2.11816,12.84232-.05494,15.66999l-15.16482,6.79641c-6.71224-7.67031-5.87043-21.63717 2.5254-41.90065 3.41694-8.22454 6.80508-15.22102 10.16444-20.98948l-5.80614-3.38126c-11.73831,18.67354-25.99242,33.59623-42.76237,44.7681l-7.41358-18.421zm74.75848,21.33699c-1.93165-.06429-4.12338-.19396-6.57523-.38901l-4.0999-16.5829c14.13947,1.12471 25.11798,1.00727 32.93557-.35234 3.39674-.61061 5.12301-1.26657 5.17882-1.9679 .28891-3.63248-10.33545-6.3053-31.87309-8.01849l-4.10519-16.51634 11.29436.89838c8.09769.64416 13.45336,1.15862 16.06704,1.54332 6.39935.9486 11.55143,2.34911 15.45628,4.20152 6.91252,3.36924 9.9945,9.75959 9.24596,19.17107-.48403,6.08441-5.14213,10.64775-13.97431,13.69002-3.94065,1.36067-8.33804,2.37679-13.19216,3.04836-.69639,8.75463-1.73296,16.79968-3.10968,24.13516l-16.15192-1.28476c1.33669-6.85449 2.30451-14.04651 2.90345-21.57609zm56.7512,2.48678c-1.92015.21979-4.10721.41307-6.56114.57985l-6.48841-15.80198c14.15148-.96185 24.99397-2.68867 32.52749-5.18049 3.27039-1.10232 4.88176-2.00445 4.8341-2.70637-.24718-3.63556-11.14868-4.72078-32.70461-3.25567l-6.48387-15.73534 11.30395-.76833c8.10457-.55081 13.47777-.82766 16.1196-.83056 6.46932-.00051 11.7711.62898 15.90548,1.88848 7.33201,2.31865 11.31814,8.1877 11.95847,17.60716 .41386,6.08958-3.52435,11.28693-11.8147,15.59204-3.69834,1.92409-7.89906,3.57435-12.60216,4.9508 .59553,8.76206.75048,16.87214.46482,24.33022l-16.16563,1.09878c.31662-6.97642.21882-14.23262-.29339-21.76859zm73.25976,9.47247c.24841,2.54418.27502,4.01277.07981,4.40576l-15.28577,2.8314c-.15989-.86337-.25802-1.51538-.2944-1.95605-4.60532,1.65729-7.37835,2.84113-8.31907,3.55153l2.3604-16.91578c.84295-.51477 2.00011-1.01982 3.4715-1.51519l-.83977-4.53397c-.64571-3.72039-1.28252-7.39806-1.91053-11.03303-1.01208-5.70835-2.03482-10.99003-3.06813-15.84502-1.20138-5.76205-2.48117-10.86206-3.83936-15.30007l15.93191-2.95109c2.62944,10.0984 5.7476,24.88359 9.3545,44.35561l10.80791-3.1404c6.86662-1.98555 12.48024-3.3822 16.84084-4.18995l-2.29477,16.90363c-1.68079.08855-3.44939.30475-5.30565.64858-3.75648.69582-9.65295,2.25717-17.68942,4.68404zm14.84064-40.28541-.74658-17.06334c5.16884-4.1884 14.67988-9.49809 28.53311-15.92907 5.4206-2.54367 10.37934-4.69991 14.87623-6.4687l.72366,17.00348c-1.04458-.02353-2.92004.48255-5.62629,1.51826-13.24708,5.07003-25.83381,12.04982-37.76013,20.93937zm7.34971,19.75664-.78604-16.97959c3.82493-3.15538 10.68344-7.16669 20.57547-12.03395 9.44127-4.69463 17.07367-8.15635 22.89712-10.38518l.74657,17.06335c-1.19883-.05795-3.11068.41535-5.73545,1.41988-7.05267,2.69927-15.70587,7.11617-25.9596,13.25071-4.44332,2.64077-8.35607,5.19571-11.73807,7.66478zm7.76877,21.21815-.80894-17.03948c3.82271-3.15644 10.68-7.16826 20.57212-12.0355 9.45712-4.65306 17.09745-8.09399 22.92098-10.32281l.72517,17.00002c-1.1414-.03229-3.02444.45384-5.6492,1.4584-7.09593,2.7158-15.77785,7.11986-26.04585,13.2122-4.40342,2.62547-8.30823,5.20119-11.71428,7.72717z" fill="#f00"/>
<g transform="matrix(.38752,.14861,-.14861,.38752,69.09996,739.27312)">
<path d="m200.655,2.044c.598.343.525,1.731 1.35,1.535 1.674-.397 3.633-.696 5.265-1.24 2.887-.962 7.472-.935 10.417-.178 3.197.821 6.789,2.133 10.125,2.133 3.645,0 6.886,2.328 9.534,4.601 1.085.931 2.285,3.09 3.604,3.575 1.38.507 2.829.447 4.256,1.031 2.599,1.063 5.963,1.616 8.074,3.52 2.146,1.935 5.071,2.75 7.414,4.529 2.528,1.921 7.694,3.708 8.769,6.955 .826,2.498-.616,6.334-2.406,8.144-2.247,2.271-5.864,3.359-8.663,4.787-3.361,1.715-7.063,3.443-9.821,6.07-2.791,2.659-5.02,5.958-7.556,8.86-4.892,5.6-11.019,9.062-16.909,13.34-1.49,1.083-3.537,1.403-5.256,1.983-1.859.627-3.64,1.498-5.53,2.029-3.664,1.031-7.581,1.381-11.165,2.576 7.764,2.33 15.767,4.18 23.051,7.837 7.247,3.639 14.657,7.895 20.636,13.42 2.826,2.611 5.568,5.395 7.903,8.458 2.565,3.364 4.1,7.318 6.436,10.822 .878,1.315.748,3.012 1.558,4.357 .822,1.366 1.783,2.641 2.229,4.195 1.254,4.374 2.722,8.694 3.646,13.156 3.546,17.111 1.835,34.855-.407,52.017-1.148,8.788-3.287,17.376-5.015,26.058-.798,4.01-1.177,8.117-2.258,12.067-1.125,4.11-2.985,7.996-4.875,11.8-3.663,7.372-7.95,14.433-13.161,20.819-2.566,3.146-5.264,6.199-8.106,9.098-2.693,2.747-5.947,4.924-8.48,7.826-1.116,1.279-1.94,2.587-3.428,3.49-1.352.821-2.848,1.37-4.19,2.208-3.305,2.06-5.891,5.089-9.269,7.067-7.248,4.245-14.412,8.296-22.059,11.799-7.975,3.653-16.153,5.486-24.845,6.344-2.025.199-4.056.358-6.092.399-1.848.037-3.17-.838-5.093-.705-1.822.125-3.537-.715-5.325-.901-2.351-.246-4.709-.423-7.07-.525-4.06-.175-7.521.195-11.47,1.061-3.867.849-8.613.533-12.423-.519-3.567-.984-6.311-2.129-8.605-5.075-2.409-3.095-6.724-2.591-10.301-3.587-7.172-1.999-14.492-4.354-20.86-8.244-1.74-1.062-3.629-1.854-5.351-2.958-1.431-.918-2.602-2.167-3.959-3.181-3.225-2.41-7.284-3.405-10.615-5.684-3.378-2.312-6.577-4.869-9.806-7.382-3.547-2.762-7.356-5.313-10.528-8.52-5.798-5.859-11.155-11.97-16.045-18.605-21.351-28.973-21.562-66.525-11.635-99.846 4.813-16.156 11.982-31.038 22.521-44.229 4.668-5.844 10.795-11.251 17.025-15.381 3.161-2.095 6.518-3.23 9.925-4.785 3.776-1.722 7.013-3.964 11.094-5.012 8.05-2.066 16.489-4.284 24.841-4.5 4.104-.106 8.225.089 12.33.089 2.792,0 5.212-.168 7.923.406 1.437.304 4.389,1.105 5.708.133 1.178-.869-4.109-4.312-4.758-4.834-2.68-2.154-5.819-3.806-8.167-6.354-.724-.786-4.758-6.231-3.762-7.351 .825-.928.513-1.995 1.179-2.972 .73-1.07 2.179-1.496 3.309-1.979 2.892-1.238 6.495-2.577 8.239-5.309 1.181-1.85 5.538-5.676 7.934-4.478 2.588,1.293 6.276,1.021 8.65,2.694 4.95,3.489 3.226,10.595 1.61,15.352-.371,1.093 1.155,2.103 2.091,1.616 1.351-.702 2.556-2.027 3.475-3.21 2.245-2.888 2.992-6.365 4.039-9.789 .99-3.239 2.241-6.404 2.978-9.713 .792-3.563 2.291-5.407 4.534-8.169 2.098-2.583 4.189-5.374 7.43-6.562 3.513-1.288 6.168-1.713 9.091-4.269 5.485-4.797 11.143-9.463 17.848-12.46 3.118-1.392 14.776-6.645 17.223-1.75" fill="#010101" fill-rule="evenodd"/>
<path d="m229.155,10.294c-2.483,1.242-5.216,2.217-7.219,4.219-2.164,2.164-4.843,3.684-7.558,5.044-5.308,2.66-10.536,6.281-14.023,11.165-.47.658-.93,2.01-1.87,2.109-1.499.158-2.481.31-3.888.938-2.871,1.283-5.85,1.512-8.789,2.403-6.327,1.918-11.587,5.713-17.403,8.621 1.48-2.962 3.428-5.615 4.91-8.542 .922-1.819 1.215-3.884 2.178-5.689 .872-1.633 2.108-3.022 3.2-4.505 1.876-2.547 2.864-5.623 4.772-8.147 2.281-3.017 4.397-6.001 7.694-7.988 1.396-.842 2.858-1.568 4.319-2.292 1.005-.499 1.189.788 1.906,1.159 1.344.694 3.24-.551 4.597-.7 2.078-.229 3.902.092 5.97-.444 3.509-.909 7.549-.84 11.142-.525 3.56.312 6.724,2.061 10.062,3.174" fill="#009445" fill-rule="evenodd"/>
<path d="m190.155,6.544c-1.011,1.01-2.278,1.706-3.343,2.652-1.411,1.256-2.342,2.967-3.598,4.366-2.23,2.486-4.673,4.815-6.556,7.591-1.877,2.766-2.769,5.986-4.437,8.863-1.901,3.28-2.45,6.588-5.069,9.442-2.256,2.457-4.521,5.273-6.149,8.188-1.859,3.329-3.14,6.167-6.349,8.34-2.952,1.998-6.092,3.703-9.039,5.696-1.193.807-2.555,1.878-4.054,1.973-2.062.131-4.126.232-6.157.638 1.325-2.651 4.304-3.253 5.403-6.219 1.436-3.873 2.897-7.736 4.405-11.581 1.447-3.69 2.744-7.484 4.953-10.809 2.304-3.468 5.479-6.222 8.124-9.41 1.157-1.395 2.556.308 3.478-.444 1.067-.871 2.766-.409 3.651-1.452 .408-.481.482-1.296 1.104-1.584 .631-.293 1.169-.279 1.426-1.036 .489-1.445 2.228-1.803 3.369-2.7 2.782-2.187 4.976-4.797 7.944-6.807 3.418-2.309 6.831-4.691 10.894-5.707" fill="#009445" fill-rule="evenodd"/>
<path d="m264.405,28.294c-1.53,1.53-2.748,3.864-4.579,5.039-1.704,1.093-4.155.953-6.093.95-2.31-.004-4.411-.686-6.686-.864-2.854-.223-5.725-.349-8.588-.583-2.887-.236-5.822.303-8.673-.376-2.586-.617-5.541-1.039-8.177-1.372-4.554-.575-10.812-.365-14.955,1.707 1.828-5.484 7.265-8.297 11.877-11.245 2.438-1.558 5.315-1.989 7.783-3.364 1.289-.718 3.439-3.625 5.121-2.959 1.367.541 2.951.323 4.377.632 1.506.326 2.953.862 4.404,1.367 2.863.996 5.897,1.523 8.633,2.874 2.591,1.28 5.574,2.353 8.032,3.843 2.515,1.519 4.796,3.44 7.524,4.351" fill="#009445" fill-rule="evenodd"/>
<path d="m250.905,37.294c-2.893,1.446-5.721,2.819-8.726,4.018-2.847,1.135-5.45,2.852-8.456,3.576-1.351.326-6.585,3.114-6.793.741-.108-1.225-.74-2.159-.789-3.462-.045-1.208-.277-2.987-1.358-3.755-1.41-1.001-5.073,2.219-5.907,3.224-1.193,1.44-3.248,1.784-4.704.789-1.35-.922-2.575-2.285-4.038-3.017-1.144-.572-2.39-1.025-3.312-1.948s-1.792-1.667-3.167-1.667c3.9-.975 7.831-1.622 11.863-1.514 4.304.115 8.654,1.089 12.912,1.652 3.741.495 7.634,1.312 11.414,1.368 1.826.028 3.656.206 5.432.649 .699.175 1.354-.212 1.973-.457 1.172-.463 2.44-.197 3.656-.197" fill="#009445" fill-rule="evenodd"/>
<path d="m211.905,45.544c0,2.38-1.505,3.005-3,4.5-.713.712-1.732.982-2.444,1.694-.831.83-1.104,2.078-2.056,2.806 .183-1.842-1.849-3.143-2.71-4.572-.622-1.032-1.729-2.995-3.195-2.024-2.1,1.39-4.001,3.046-5.807,4.796-.9.873-3.399,4.386-4.688,4.083-1.444-.34-2.791-1.349-4.143-1.945-1.976-.871-4.009-.765-5.973-1.466-1.691-.604-2.562-2.251-4.201-2.905-1.926-.769-4.032-.772-6.034-1.216 3.962-1.981 7.546-4.642 11.568-6.509 2.115-.982 4.333-1.722 6.518-2.53 1.922-.711 3.833-1.855 5.896-2.05 1.983-.188 3.66-1.123 5.589-1.403 1.843-.268 4.184.92 5.764,1.773 1.531.827 2.808,1.735 4.394,2.501 1.88.909 3.086,3.03 4.522,4.467" fill="#009445" fill-rule="evenodd"/>
<path d="m127.155,44.794c-.824,2.471-1.137,5.071-1.556,7.631-.364,2.229-2.851,2.209-4.61,2.149-2.792-.095-5.325-1.152-8.051-1.505-2.661-.345-4.982,1.174-6.782,2.975 0-5.733 5.882-3.78 9.218-6.245 .698-.517.853-1.408 1.532-1.941 .957-.75 1.56-1.374 2.364-2.289 1.98-2.253 5.56-2.325 7.885-.775" fill="#754c29" fill-rule="evenodd"/>
<path d="m223.905,47.794c1.179,2.357 4.003,3.075 6.447,2.97 1.416-.061 2.724-.589 4.118-.752 1.475-.173 2.957.033 4.435.033-2.147,2.147-3.868,4.68-6.047,6.799-2.518,2.448-5.599,4.463-8.564,6.321-5.942,3.722-12.771,5.466-19.56,6.921-7.502,1.608-15.158,2.193-22.814,1.623-7.844-.583-15.522-2.374-23.265-3.664 1.927-.963 4.58-1.743 6.748-1.421 1.322.197 2.603.998 3.975.748 1.397-.255 2.774-.688 4.184-.953 6.337-1.189 12.222-4.019 17.332-7.924 1.092-.834 6.247-6.891 7.393-6.187 1.711,1.052-.214,3.126.595,4.743 .731,1.462 3.317,1.182 3.274,2.745 2.399.254 4.571-2.732 6.075-4.192 2.024-1.964 4.262-3.267 6.156-5.424 1.6-1.82 3.889-4.385 5.976-5.618 2.713-1.605 2.705,1.559 3.542,3.232" fill="#009445" fill-rule="evenodd"/>
<path d="m184.155,58.294c-3.169,1.584-5.623,4.745-9.309,5.204-1.889.235-2.785.717-4.721.233-2.007-.501-4.129-.498-6.176-.292-2.103.211-4.043,1.097-6.002,1.823-1.688.627-2.967,2.032-4.87,2.032-2.138,0-4.304.486-6.423,0-.602-.138-1.169-.691-1.832-.522-1.13.289-2.245.522-3.418.522 3.914-1.566 7.986-2.955 11.526-5.296 3.531-2.336 6.673-5.007 9.807-7.816 3.225-2.892 7.35-1.827 11.059-.59 1.774.592 2.69,2.434 4.358,3.203 1.894.871 4.003.999 6.001,1.499" fill="#009445" fill-rule="evenodd"/>
<path d="m128.655,58.294c1.599,3.997 4.321,7.186 5.348,11.427 1.194,4.934 2.178,9.981 2.101,15.079-.076,5.001-.619,9.97-.624,14.987-.004,2.996-.201,7.397-3.872,8.014-2.337.392-6.095-1.072-3.709-3.801 .838-.958 1.49-1.808.396-2.907-.874-.878-1.46-.941-1.574-2.349-.093-1.147-.153-2.142-.794-3.13-2.354-3.627-6.368-5.965-8.797-9.608-2.93-4.395.47-8.595 3.275-11.962 1.874,1.874.955,1.479-.266,3.555-1.013,1.721-1.602,4.25-1.064,6.207 .936,3.411 5.016,5.661 7.956,7.126 3.646,1.818 2.582-3.639 2.382-5.785-.411-4.421-1.679-7.643-4.5-11.041-1.321-1.592-2.874-2.977-4.167-4.589-1.124-1.401-2.129-2.919-3.671-3.894-1.796-1.135-5.813-2.707-6.142-5.14-.172-1.276 1.278-3.153 2.161-3.93 1.747-1.536 3.271.363 5.125.193 1.589-.145 2.218,1.76 3.737,1.577 1.058-.127 1.942.554 2.948.72 1.308.216 2.545-.347 3.751-.749" fill="#603913" fill-rule="evenodd"/>
<path d="m114.405,77.044c0,2.113-1.404,4.365-.621,6.46 .829,2.214 1.683,4.505 3.109,6.417 2.064,2.765 5.291,5.566 5.776,9.168 .625,4.644-5.155,3.49-7.869,2.971-5.211-.996-10.358-.025-15.396,1.235 .988,1.977 3.529,1.807 5.374,1.328 3.028-.787 5.072-.814 8.181-.091 3.042.708 6.041,1.411 9.044,2.269 2.565.733 4.862,2.798 7.461,3.173 2.101.303 5.995-.169 7.894-1.101 1.027-.504 2.129-.287 3.219-.553 1.5-.366 3.01-.682 4.512-1.041 2.557-.611 4.906-1.583 7.318-2.601 .788-.332 1.786-.703 2.315-1.421 .487-.662.603-1.688 1.682-1.461-.508-.762-.941-2.26-2.163-1.868-1.538.494-3.777.485-5.121,1.373s-2.774.102-4.198.608c-.651.232-3.029,1.234-3.422-.118-.363-1.256.191-3.202.329-4.464 .247-2.279.537-4.554.758-6.835 .242-2.497-.201-5.185-.657-7.635-.395-2.113-1.654-4.922.776-6.014 2.924-1.313 6.992-1.747 10.168-2.034 4.403-.399 9.072-.119 13.476.19 8.493.597 17.245,1.429 25.617,3 3.987.749 7.681,2.22 11.585,3.228 4.402,1.137 8.468,2.305 12.669,4.081 8.144,3.44 15.449,7.399 22.518,12.749 6.503,4.922 10.908,11.91 14.579,19.078 3.741,7.306 6.403,15.511 8.36,23.487 2.088,8.51.975,17.493.51,26.104-.493,9.137-.65,18.156-1.938,27.242-1.252,8.832-2.506,17.728-4.578,26.411-2.013,8.435-5.016,16.651-8.869,24.419-3.628,7.313-8.587,13.764-13.861,19.955-10.454,12.27-25.851,20.591-40.164,27.513-7.314,3.538-14.867,7.345-23.064,8.181-8.137.83-16.683,2.782-24.882,1.563-3.895-.578-7.571-1.828-11.403-2.561-3.727-.713-7.215,1.651-10.882,1.812-3.691.162-7.978.962-11.592-.087-3.293-.956-3.826-4.896-6.665-6.303-1.292-.641-3.104-.48-4.5-.739-1.938-.358-3.855-.842-5.772-1.296-1.799-.427-3.597-.878-5.296-1.619-1.904-.831-4-1.23-5.855-2.1-7.579-3.55-15.092-7.033-22.191-11.544-14.172-9.007-25.531-21.321-34.775-35.202-4.814-7.229-8.208-14.488-11.035-22.684-2.885-8.361-5.715-16.896-6.942-25.683s-1.009-17.735-.223-26.556c.769-8.631 3.028-16.536 5.982-24.642 5.551-15.231 12.42-29.712 23.426-41.795 5.508-6.047 11.663-11.932 18.784-16.044 6.761-3.905 14.998-7.418 22.824-8.031 2.787-.218 5.328-.998 8.056-1.436 1.474-.237 2.961.059 4.44-.148 1.492-.209 2.759-.733 4.297-.679 6.173.216 13.184-.485 18.895,2.371" fill="#ed1c24" fill-rule="evenodd"/>
</g><text font-family="Bitstream Vera Sans" font-size="54.98069" transform="scale(1.33499,.74907)" x="30.53158" xml:space="preserve" y="989.66376"><tspan x="30.53158" y="989.66376">Spritzer</tspan></text>
<path d="m226.03907,512.81352c10.12192,22.35445 65.5902,23.83518 77.87146-2.03586l5.89674-153.70705c-2.32572,24.99366-90.30568,25.51468-93.35118-.59628l9.58298,156.33919z" fill="url(#linearGradient5100)" fill-rule="evenodd" transform="matrix(1.07565,0,0,1.07565,-38.39971,304.52946)"/>
<path d="m225.15379,521.95637c10.12192,22.35445 65.5902,23.83518 77.87146-2.03586l5.89674-153.70705c-2.32572,24.99366-90.30568,25.51468-93.35118-.59628l9.58298,156.33919z" fill="url(#linearGradient5102)" fill-rule="evenodd" transform="matrix(1.07565,0,0,1.07565,-38.39971,304.52946)"/>
<path d="m225.85934,519.74223c10.12192,22.35445 65.5902,23.83518 77.87146-2.03586l5.89674-153.70705c-2.32572,24.99366-90.30568,25.51468-93.35118-.59628l9.58298,156.33919z" fill="url(#linearGradient5104)" fill-rule="evenodd" transform="matrix(1.07565,0,0,1.07565,-38.39971,304.52946)"/>
<path d="m261.84982,414.98234c-33.12507,1.31481-40.06474,16.97718-39.9375,24.1875s8.8661,19.13616 40.71875,19.09375c3.28739-.05691 6.19145-.35426 9.03125-.6875-2.26111.18505-4.41536.39059-7.125.4375-31.85265.04241-31.96652-8.28969-32.09375-15.5s.10845-25.7185 30.96875-25.59375c30.8603-.23514 32.18525,15.44594 32.3125,22.65625 .07345,4.16235.08948,9.42409-5.875,13.28125 10.83418-5.05609 14.82973-12.48214 14.75-17-.12723-7.21033-9.37046-22.18982-42.75-20.875z" fill="url(#linearGradient5106)" fill-rule="evenodd" transform="matrix(1.07565,0,0,1.07565,-38.39971,304.52946)"/>
<path d="m222.46851,439.21252c.12724,7.21032 8.86445,19.12855 40.7171,19.08614 31.85265-.55138 42.11675-15.18408 41.98951-22.3944s-9.37341-22.18234-42.75295-20.86752c-33.12506,1.31482-40.0809,16.96546-39.95366,24.17578z" fill="url(#linearGradient5108)" fill-rule="evenodd" transform="matrix(1.07565,0,0,1.07565,-38.39971,304.52946)"/>
<path d="m233.72595,442.96761c.12724,7.21032.22705,15.52963 32.0797,15.48722 31.85265-.55138 31.32-11.22527 31.19276-18.43559s-1.45579-22.90212-32.31609-22.66698c-30.8603-.12475-31.08361,18.40503-30.95637,25.61535z" fill="url(#linearGradient5110)" fill-rule="evenodd" transform="matrix(1.07565,0,0,1.07565,-38.39971,304.52946)"/>
<path d="m309.53144,364.59561c-2.32572,24.99366-90.30568,25.51468-93.35118-.59628-1.45662-23.46805 93.02643-26.57756 93.35118.59628z" fill="url(#linearGradient5112)" fill-rule="evenodd" transform="matrix(1.07565,0,0,1.07565,-38.39971,304.52946)"/>
<path d="m226.03908,520.44795c10.12192,22.35445 65.5902,23.83518 77.87146-2.03586l1.30062-24.11814c55.5866-4.29897 73.49556,76.0997-39.02569,77.65141-111.50333,1.5517-99.88189-70.79081-42.11036-79.26562l1.96397,27.76821z" fill="url(#radialGradient5116)" fill-rule="evenodd" transform="matrix(1.07565,0,0,1.07565,-38.39971,304.52946)"/>
<path d="m227.256,506.03894 .76344,10.68824c.21222,2.97106-.6362,5.72584 3.05379,8.3979 14.37823,13.86926 51.99913,11.11237 63.36599,1.52689 3.7324-3.98688 6.02263-5.08864 6.36204-8.65239l1.52689-14.50546c-8.14342-1.18758-19.04373,9.50065-37.40884,9.67031-18.87407.16966-25.10887-9.16135-37.66331-7.12549z" fill="url(#linearGradient5118)" fill-rule="evenodd" transform="matrix(1.07565,0,0,1.07565,-38.39971,304.52946)"/>
<g transform="matrix(1.07565,0,0,1.07565,69.99602,264.88648)">
<path d="m199.76827,548.68609c-13.48754,14.92961-49.87845,22.22475-73.79975,2.03586 7.29515,20.01924 64.2991,25.02406 73.79975-2.03586z" fill="url(#linearGradient5120)" fill-rule="evenodd"/>
<path d="m200.46316,547.49005c-2.38156,2.02695-4.74803,4.08258-7.15102,6.07777-2.70808,1.46727-5.46094,2.84401-8.27458,4.09782-2.24896,1.13229-4.72332,1.69305-7.08573,2.53765-1.24535.4451-2.50115.83677-3.82564.94831-2.83253.39853-5.65611.92291-8.49427,1.24202-3.47486-.05416-6.95858-.01616-10.42799-.12711-2.75494-.53333-5.53791-.95748-8.27537-1.55883-2.36176-.82867-4.78148-1.5095-7.10568-2.43398-1.81466-.86165-3.70707-1.60157-5.47415-2.53624-2.84902-1.87873-5.68409-3.80373-8.54182-5.65366-.76002-.44156-.47065.59367-.21808.95322 .67206,1.2704 1.43693,2.56048 2.18683,3.76553 1.35269,1.33574 2.67918,2.75488 4.0462,4.04089 1.65765.95548 3.25127,2.05455 4.94861,2.9203 2.38554.97836 4.7289,2.085 7.14084,2.98306 2.83545.64903 5.65663,1.38887 8.50086,1.9819 2.73871.23596 5.46984.62416 8.21349.76135 2.80114-.05814 5.61701.16647 8.40059-.22861 2.23717-.23229 4.48323-.40051 6.67392-.93754 1.71563-.30226 3.41022-.68488 5.04508-1.29561 2.29007-.67567 4.50606-1.55276 6.69968-2.49063 1.36352-.46591 2.37363-1.56926 3.56792-2.34574 1.23682-.94932 2.59251-1.74021 3.56511-2.97226 1.00505-1.11066 2.13872-2.08543 2.84354-3.41965 .80247-1.18636 1.54919-2.39063 2.06776-3.72987 .39638-.93731.89558-1.836 1.2239-2.79884l-.25.21875z" fill="url(#linearGradient5122)" fill-rule="evenodd"/>
</g>
<path d="m156.193,541.31592a49.66506,49.66506 0 1,1 -99.33011,0 49.66506,49.66506 0 1,1 99.33011,0z" fill="url(#radialGradient5124)" fill-rule="evenodd" transform="matrix(1.07565,0,0,.27281,131.32001,710.84845)"/>
</g>
<path d="m92.60268,150.3575c0,0 72.0477,52.42674 69.19055,136.52374-97.1235,165.4832-92.5242,56.45021-129.19055,140.61912-1.23987,0-2.23802-.99815-2.23802-2.23802-17.48502,5.2455-24.93296-232.83979 62.23802-274.90484z" fill="url(#linearGradient5327)"/>
</g>
</svg>
